# xmcd CD database file
#
# Track frame offsets:
#	150
#	73108
#	107158
#	219768
#	254887
#	303814
#
# Disc length: 4527 seconds
#
# Revision: 0
# Processed by: cddbd v1.5.2PL0 Copyright (c) Steve Scherf et al.
# Submitted via: CDex 1.70beta3
#
DISCID=5311ad06
DTITLE=Ivo Perelman - Joe Morris - Gerald Cleaver  - Family Ties
DYEAR=2011
DGENRE=Jazz
TTITLE0=Family ties
TTITLE1=The imitation of the rose
TTITLE2=Love
TTITLE3=Preciousness
TTITLE4=Mystery in Sao Christovao
TTITLE5=The buffalo
EXTD=YEAR: 2011
EXTT0=
EXTT1=
EXTT2=
EXTT3=
EXTT4=
EXTT5=
PLAYORDER=
